<svg xmlns="http://www.w3.org/2000/svg" width="1200" height="320" viewBox="0 0 1200 320" role="img" aria-labelledby="title desc">
  <title id="title">GWENT</title>
  <desc id="desc">An original gold and steel Easy Gwent wordmark on a dark card-table background.</desc>
  <defs>
    <linearGradient id="background" x1="0" y1="0" x2="1" y2="1">
      <stop offset="0" stop-color="#090d10"/>
      <stop offset="0.5" stop-color="#182125"/>
      <stop offset="1" stop-color="#080b0d"/>
    </linearGradient>
    <linearGradient id="gold" x1="0" y1="0" x2="0" y2="1">
      <stop offset="0" stop-color="#fff1a3"/>
      <stop offset="0.25" stop-color="#d8b35a"/>
      <stop offset="0.55" stop-color="#8d6425"/>
      <stop offset="0.78" stop-color="#e2c66f"/>
      <stop offset="1" stop-color="#6f4817"/>
    </linearGradient>
    <linearGradient id="steel" x1="0" y1="0" x2="1" y2="0">
      <stop offset="0" stop-color="#65747a"/>
      <stop offset="0.5" stop-color="#d9e0df"/>
      <stop offset="1" stop-color="#59676c"/>
    </linearGradient>
    <radialGradient id="glow">
      <stop offset="0" stop-color="#b98a36" stop-opacity="0.22"/>
      <stop offset="1" stop-color="#b98a36" stop-opacity="0"/>
    </radialGradient>
    <filter id="shadow" x="-20%" y="-30%" width="140%" height="170%">
      <feGaussianBlur in="SourceAlpha" stdDeviation="7" result="blur"/>
      <feOffset in="blur" dy="7" result="offset"/>
      <feColorMatrix in="offset" type="matrix" values="0 0 0 0 0  0 0 0 0 0  0 0 0 0 0  0 0 0 .8 0" result="shadow"/>
      <feMerge><feMergeNode in="shadow"/><feMergeNode in="SourceGraphic"/></feMerge>
    </filter>
    <pattern id="grain" width="44" height="44" patternUnits="userSpaceOnUse">
      <path d="M0 43.5H44M43.5 0V44" stroke="#ffffff" stroke-opacity="0.018"/>
      <circle cx="8" cy="11" r="1" fill="#ffffff" fill-opacity="0.025"/>
      <circle cx="31" cy="27" r="1" fill="#000000" fill-opacity="0.2"/>
    </pattern>
  </defs>

  <rect width="1200" height="320" rx="26" fill="url(#background)"/>
  <rect width="1200" height="320" rx="26" fill="url(#grain)"/>
  <ellipse cx="600" cy="152" rx="470" ry="180" fill="url(#glow)"/>
  <rect x="16" y="16" width="1168" height="288" rx="18" fill="none" stroke="#b58a3d" stroke-opacity="0.38" stroke-width="2"/>
  <rect x="25" y="25" width="1150" height="270" rx="13" fill="none" stroke="#d9bd73" stroke-opacity="0.1"/>

  <g fill="none" stroke="url(#gold)" stroke-width="3" opacity="0.8">
    <path d="M74 160h170l34-25h68"/>
    <path d="M1126 160H956l-34-25h-68"/>
    <path d="M74 171h178l29 22h46" opacity="0.42"/>
    <path d="M1126 171H948l-29 22h-46" opacity="0.42"/>
  </g>
  <g fill="url(#gold)">
    <path d="M62 160l12-12 12 12-12 12z"/>
    <path d="M1138 160l-12-12-12 12 12 12z"/>
    <path d="M273 134l8-8 8 8-8 8z"/>
    <path d="M927 134l-8-8-8 8 8 8z"/>
  </g>

  <g filter="url(#shadow)" text-anchor="middle">
    <text x="600" y="188" fill="#080b0d" stroke="#080b0d" stroke-width="11" font-family="Georgia, 'Times New Roman', serif" font-size="150" font-weight="700" letter-spacing="18">GWENT</text>
    <text x="600" y="188" fill="url(#steel)" stroke="url(#gold)" stroke-width="4" paint-order="stroke fill" font-family="Georgia, 'Times New Roman', serif" font-size="150" font-weight="700" letter-spacing="18">GWENT</text>
    <text x="600" y="188" fill="none" stroke="#fff5c8" stroke-opacity="0.3" stroke-width="1" font-family="Georgia, 'Times New Roman', serif" font-size="150" font-weight="700" letter-spacing="18">GWENT</text>
  </g>

  <g text-anchor="middle" font-family="Arial, Helvetica, sans-serif">
    <text x="600" y="247" fill="#caa75c" font-size="18" font-weight="700" letter-spacing="8">THE WITCHER 3 CARD GAME</text>
    <text x="600" y="277" fill="#92a0a3" font-size="12" letter-spacing="5">REBUILT FOR THE WEB</text>
  </g>
</svg>
